# xmcd CD database file
#
# Track frame offsets:
#	150
#	16947
#	28839
#	43862
#	60529
#	76969
#	88802
#	107519
#	124172
#	134422
#
# Disc length: 1998 seconds
#
# Revision: 0
# Processed by: cddbd v1.4PL0 Copyright (c) Steve Scherf et al.
# Submitted via: CDex 1.51
#
DISCID=8007cc0a
DTITLE=Steve Hagan - Hidden Treasure
DYEAR=2003
DGENRE=Country
TTITLE0=Hidden Treasure
TTITLE1=A Little Bit Crazy
TTITLE2=Come back Time
TTITLE3=Don't Stop Believing
TTITLE4=Latino Fever
TTITLE5=If I Had My Way
TTITLE6=Hot Blooded
TTITLE7=We Must Go On
TTITLE8=Don't Be Cruel
TTITLE9=We'er Comming Home
EXTD=YEAR: 2003
EXTT0=
EXTT1=
EXTT2=
EXTT3=
EXTT4=
EXTT5=
EXTT6=
EXTT7=
EXTT8=
EXTT9=
PLAYORDER=
